<mxfile host="app.diagrams.net" modified="2024-04-21T08:56:04.380Z" agent="Mozilla/5.0 (Windows NT 10.0; Win64; x64) AppleWebKit/537.36 (KHTML, like Gecko) Chrome/124.0.0.0 Safari/537.36 Edg/124.0.0.0" etag="b1ItDJ-JAH_66x7GDnKJ" version="24.2.5" type="github">
  <diagram name="第 1 页" id="cdaN61lyTPZYb268lMRc">
    <mxGraphModel dx="2226" dy="1159" grid="0" gridSize="10" guides="1" tooltips="1" connect="1" arrows="1" fold="1" page="0" pageScale="1" pageWidth="827" pageHeight="1169" math="0" shadow="0">
      <root>
        <mxCell id="0" />
        <mxCell id="1" parent="0" />
        <mxCell id="aUPh2Q7bKIpOKddlwDB3-1" value="inform-push-center" style="shape=umlLifeline;whiteSpace=wrap;html=1;container=1;dropTarget=0;collapsible=0;recursiveResize=0;outlineConnect=0;portConstraint=eastwest;newEdgeStyle={&quot;curved&quot;:0,&quot;rounded&quot;:0};rounded=1;points=[[0,0,0,0,5],[0,1,0,0,-5],[1,0,0,0,5],[1,1,0,0,-5]];perimeter=rectanglePerimeter;targetShapes=umlLifeline;participant=label;" parent="1" vertex="1">
          <mxGeometry x="-375" y="-90" width="120" height="350" as="geometry" />
        </mxCell>
        <mxCell id="aUPh2Q7bKIpOKddlwDB3-3" value="" style="html=1;points=[[0,0,0,0,5],[0,1,0,0,-5],[1,0,0,0,5],[1,1,0,0,-5]];perimeter=orthogonalPerimeter;outlineConnect=0;targetShapes=umlLifeline;portConstraint=eastwest;newEdgeStyle={&quot;curved&quot;:0,&quot;rounded&quot;:0};" parent="aUPh2Q7bKIpOKddlwDB3-1" vertex="1">
          <mxGeometry x="55" y="60" width="10" height="40" as="geometry" />
        </mxCell>
        <mxCell id="aUPh2Q7bKIpOKddlwDB3-2" value="" style="shape=umlLifeline;perimeter=lifelinePerimeter;whiteSpace=wrap;html=1;container=1;dropTarget=0;collapsible=0;recursiveResize=0;outlineConnect=0;portConstraint=eastwest;newEdgeStyle={&quot;curved&quot;:0,&quot;rounded&quot;:0};participant=umlActor;" parent="1" vertex="1">
          <mxGeometry x="-470" y="-90" width="20" height="350" as="geometry" />
        </mxCell>
        <mxCell id="aUPh2Q7bKIpOKddlwDB3-4" value="1、创建并发布精准通知" style="html=1;verticalAlign=bottom;endArrow=block;curved=0;rounded=0;entryX=0;entryY=0;entryDx=0;entryDy=5;" parent="1" source="aUPh2Q7bKIpOKddlwDB3-2" target="aUPh2Q7bKIpOKddlwDB3-3" edge="1">
          <mxGeometry relative="1" as="geometry">
            <mxPoint x="-441" y="-25" as="sourcePoint" />
          </mxGeometry>
        </mxCell>
        <mxCell id="aUPh2Q7bKIpOKddlwDB3-5" value="return" style="html=1;verticalAlign=bottom;endArrow=open;dashed=1;endSize=8;curved=0;rounded=0;exitX=0;exitY=1;exitDx=0;exitDy=-5;" parent="1" source="aUPh2Q7bKIpOKddlwDB3-3" target="aUPh2Q7bKIpOKddlwDB3-2" edge="1">
          <mxGeometry relative="1" as="geometry">
            <mxPoint x="-441" y="45" as="targetPoint" />
          </mxGeometry>
        </mxCell>
        <mxCell id="aUPh2Q7bKIpOKddlwDB3-6" value="inform-popup-center" style="shape=umlLifeline;perimeter=lifelinePerimeter;whiteSpace=wrap;html=1;container=1;dropTarget=0;collapsible=0;recursiveResize=0;outlineConnect=0;portConstraint=eastwest;newEdgeStyle={&quot;curved&quot;:0,&quot;rounded&quot;:0};rounded=1;" parent="1" vertex="1">
          <mxGeometry x="-215" y="-90" width="120" height="350" as="geometry" />
        </mxCell>
        <mxCell id="aUPh2Q7bKIpOKddlwDB3-7" value="" style="html=1;points=[[0,0,0,0,5],[0,1,0,0,-5],[1,0,0,0,5],[1,1,0,0,-5]];perimeter=orthogonalPerimeter;outlineConnect=0;targetShapes=umlLifeline;portConstraint=eastwest;newEdgeStyle={&quot;curved&quot;:0,&quot;rounded&quot;:0};" parent="aUPh2Q7bKIpOKddlwDB3-6" vertex="1">
          <mxGeometry x="55" y="120" width="10" height="200" as="geometry" />
        </mxCell>
        <mxCell id="aUPh2Q7bKIpOKddlwDB3-8" value="2、批量推送精准通知" style="html=1;verticalAlign=bottom;endArrow=block;curved=0;rounded=0;entryX=0;entryY=0;entryDx=0;entryDy=5;" parent="1" target="aUPh2Q7bKIpOKddlwDB3-7" edge="1">
          <mxGeometry relative="1" as="geometry">
            <mxPoint x="-310" y="35" as="sourcePoint" />
          </mxGeometry>
        </mxCell>
        <mxCell id="aUPh2Q7bKIpOKddlwDB3-9" value="return" style="html=1;verticalAlign=bottom;endArrow=open;dashed=1;endSize=8;curved=0;rounded=0;entryX=0.533;entryY=0.803;entryDx=0;entryDy=0;entryPerimeter=0;" parent="1" source="aUPh2Q7bKIpOKddlwDB3-7" edge="1">
          <mxGeometry relative="1" as="geometry">
            <mxPoint x="-311.03999999999996" y="60.44999999999986" as="targetPoint" />
            <mxPoint x="-125" y="59.54999999999977" as="sourcePoint" />
          </mxGeometry>
        </mxCell>
        <mxCell id="aUPh2Q7bKIpOKddlwDB3-11" value="Kafka集群" style="shape=umlLifeline;perimeter=lifelinePerimeter;whiteSpace=wrap;html=1;container=1;dropTarget=0;collapsible=0;recursiveResize=0;outlineConnect=0;portConstraint=eastwest;newEdgeStyle={&quot;curved&quot;:0,&quot;rounded&quot;:0};rounded=1;" parent="1" vertex="1">
          <mxGeometry x="66" y="-90" width="100" height="350" as="geometry" />
        </mxCell>
        <mxCell id="aUPh2Q7bKIpOKddlwDB3-12" value="" style="html=1;points=[[0,0,0,0,5],[0,1,0,0,-5],[1,0,0,0,5],[1,1,0,0,-5]];perimeter=orthogonalPerimeter;outlineConnect=0;targetShapes=umlLifeline;portConstraint=eastwest;newEdgeStyle={&quot;curved&quot;:0,&quot;rounded&quot;:0};" parent="aUPh2Q7bKIpOKddlwDB3-11" vertex="1">
          <mxGeometry x="45" y="130" width="10" height="40" as="geometry" />
        </mxCell>
        <mxCell id="aUPh2Q7bKIpOKddlwDB3-13" value="3、将精准通知消息内容发送消息到kafka" style="html=1;verticalAlign=bottom;endArrow=block;curved=0;rounded=0;entryX=0;entryY=0;entryDx=0;entryDy=5;" parent="1" source="aUPh2Q7bKIpOKddlwDB3-7" target="aUPh2Q7bKIpOKddlwDB3-12" edge="1">
          <mxGeometry relative="1" as="geometry">
            <mxPoint x="-135" y="65" as="sourcePoint" />
            <mxPoint as="offset" />
          </mxGeometry>
        </mxCell>
        <mxCell id="aUPh2Q7bKIpOKddlwDB3-14" value="4、消费kafka消息（抽取消息内容部分字段打平）" style="html=1;verticalAlign=bottom;endArrow=open;dashed=1;endSize=8;curved=0;rounded=0;exitX=0;exitY=1;exitDx=0;exitDy=-5;" parent="1" source="aUPh2Q7bKIpOKddlwDB3-12" target="aUPh2Q7bKIpOKddlwDB3-6" edge="1">
          <mxGeometry x="0.0013" relative="1" as="geometry">
            <mxPoint x="-135" y="135" as="targetPoint" />
            <mxPoint as="offset" />
          </mxGeometry>
        </mxCell>
        <mxCell id="aUPh2Q7bKIpOKddlwDB3-15" value="MySQL" style="shape=umlLifeline;perimeter=lifelinePerimeter;whiteSpace=wrap;html=1;container=1;dropTarget=0;collapsible=0;recursiveResize=0;outlineConnect=0;portConstraint=eastwest;newEdgeStyle={&quot;curved&quot;:0,&quot;rounded&quot;:0};rounded=1;" parent="1" vertex="1">
          <mxGeometry x="185" y="-90" width="100" height="350" as="geometry" />
        </mxCell>
        <mxCell id="aUPh2Q7bKIpOKddlwDB3-16" value="" style="html=1;points=[[0,0,0,0,5],[0,1,0,0,-5],[1,0,0,0,5],[1,1,0,0,-5]];perimeter=orthogonalPerimeter;outlineConnect=0;targetShapes=umlLifeline;portConstraint=eastwest;newEdgeStyle={&quot;curved&quot;:0,&quot;rounded&quot;:0};" parent="aUPh2Q7bKIpOKddlwDB3-15" vertex="1">
          <mxGeometry x="45" y="210" width="10" height="30" as="geometry" />
        </mxCell>
        <mxCell id="aUPh2Q7bKIpOKddlwDB3-17" value="5、存储精准通知消息" style="html=1;verticalAlign=bottom;endArrow=block;curved=0;rounded=0;entryX=0;entryY=0;entryDx=0;entryDy=5;" parent="1" target="aUPh2Q7bKIpOKddlwDB3-16" edge="1">
          <mxGeometry relative="1" as="geometry">
            <mxPoint x="-155" y="125" as="sourcePoint" />
          </mxGeometry>
        </mxCell>
        <mxCell id="aUPh2Q7bKIpOKddlwDB3-18" value="return" style="html=1;verticalAlign=bottom;endArrow=open;dashed=1;endSize=8;curved=0;rounded=0;" parent="1" edge="1">
          <mxGeometry relative="1" as="geometry">
            <mxPoint x="-145" y="150" as="targetPoint" />
            <mxPoint x="230" y="150" as="sourcePoint" />
          </mxGeometry>
        </mxCell>
        <mxCell id="aUPh2Q7bKIpOKddlwDB3-19" value="Redis" style="shape=umlLifeline;perimeter=lifelinePerimeter;whiteSpace=wrap;html=1;container=1;dropTarget=0;collapsible=0;recursiveResize=0;outlineConnect=0;portConstraint=eastwest;newEdgeStyle={&quot;curved&quot;:0,&quot;rounded&quot;:0};rounded=1;" parent="1" vertex="1">
          <mxGeometry x="300" y="-90" width="100" height="350" as="geometry" />
        </mxCell>
        <mxCell id="aUPh2Q7bKIpOKddlwDB3-20" value="" style="html=1;points=[[0,0,0,0,5],[0,1,0,0,-5],[1,0,0,0,5],[1,1,0,0,-5]];perimeter=orthogonalPerimeter;outlineConnect=0;targetShapes=umlLifeline;portConstraint=eastwest;newEdgeStyle={&quot;curved&quot;:0,&quot;rounded&quot;:0};" parent="aUPh2Q7bKIpOKddlwDB3-19" vertex="1">
          <mxGeometry x="45" y="270" width="10" height="40" as="geometry" />
        </mxCell>
        <mxCell id="aUPh2Q7bKIpOKddlwDB3-21" value="6、计算按模块和优先级计算用户弹窗并缓存到Redis中" style="html=1;verticalAlign=bottom;endArrow=block;curved=0;rounded=0;entryX=0;entryY=0;entryDx=0;entryDy=5;" parent="1" target="aUPh2Q7bKIpOKddlwDB3-20" edge="1">
          <mxGeometry relative="1" as="geometry">
            <mxPoint x="-150" y="185" as="sourcePoint" />
          </mxGeometry>
        </mxCell>
        <mxCell id="aUPh2Q7bKIpOKddlwDB3-22" value="return" style="html=1;verticalAlign=bottom;endArrow=open;dashed=1;endSize=8;curved=0;rounded=0;" parent="1" edge="1">
          <mxGeometry relative="1" as="geometry">
            <mxPoint x="-155.33333333333348" y="220" as="targetPoint" />
            <mxPoint x="345" y="220" as="sourcePoint" />
          </mxGeometry>
        </mxCell>
      </root>
    </mxGraphModel>
  </diagram>
</mxfile>
